<?xml version="1.0" encoding="utf-8"?>
<!-- Generator: Adobe Illustrator 16.0.0, SVG Export Plug-In . SVG Version: 6.00 Build 0)  -->
<!DOCTYPE svg PUBLIC "-//W3C//DTD SVG 1.1//EN" "http://www.w3.org/Graphics/SVG/1.1/DTD/svg11.dtd">
<svg version="1.1" id="Layer_1" xmlns="http://www.w3.org/2000/svg" xmlns:xlink="http://www.w3.org/1999/xlink" x="0px" y="0px"
	 width="960px" height="560px" viewBox="0 0 960 560" enable-background="new 0 0 960 560" xml:space="preserve">
<g>
	<path fill="#013056" stroke="#013056" stroke-miterlimit="10" d="M569.497,222.113c0-3.125,0.211-7.357,2.19-12.159
		c1.979,4.802,2.104,8.813,2.104,12.249c0,2.686-0.415,5.064-2.104,6.297C569.998,227.268,569.584,224.669,569.497,222.113
		L569.497,222.113z"/>
	<g>
		<path fill="#013056" stroke="#013056" stroke-miterlimit="10" d="M574.37,232.713c1.368,1.295,4.838-1.799,6.3-6.58
			C576.227,227.988,573.021,231.307,574.37,232.713"/>
	</g>
	<circle fill="#013056" stroke="#013056" stroke-miterlimit="10" cx="571.645" cy="236.332" r="1.5"/>
	<path fill="#013056" stroke="#013056" stroke-miterlimit="10" d="M569.497,252.717c0,3.802,0.211,8.947,2.19,14.783
		c1.979-5.836,2.104-10.713,2.104-14.89c0-3.267-0.415-6.157-2.104-7.656C569.998,246.453,569.584,249.611,569.497,252.717
		L569.497,252.717z"/>
	<path fill="#013056" stroke="#013056" stroke-miterlimit="10" d="M560.031,238.874c-3.126,0-7.358-0.211-12.16-2.19
		c4.802-1.979,8.813-2.104,12.249-2.104c2.687,0,5.064,0.415,6.298,2.104C565.185,238.373,562.586,238.787,560.031,238.874
		L560.031,238.874z"/>
	<path fill="#013056" stroke="#013056" stroke-miterlimit="10" d="M583.258,238.874c3.126,0,7.358-0.211,12.16-2.19
		c-4.802-1.979-8.813-2.104-12.249-2.104c-2.687,0-5.064,0.415-6.298,2.104C578.104,238.373,580.703,238.787,583.258,238.874
		L583.258,238.874z"/>
	<g>
		<path fill="#013056" stroke="#013056" stroke-miterlimit="10" d="M574.37,239.928c1.368-1.294,4.838,1.8,6.3,6.581
			C576.227,244.652,573.021,241.334,574.37,239.928"/>
	</g>
	<g>
		<path fill="#013056" stroke="#013056" stroke-miterlimit="10" d="M568.657,232.713c-1.368,1.295-4.837-1.799-6.3-6.58
			C566.801,227.988,570.008,231.307,568.657,232.713"/>
	</g>
	<g>
		<path fill="#013056" stroke="#013056" stroke-miterlimit="10" d="M568.657,239.928c-1.368-1.294-4.837,1.8-6.3,6.581
			C566.801,244.652,570.008,241.334,568.657,239.928"/>
	</g>
</g>
</svg>
